# Blender v2.78 (sub 0) OBJ File: ''
# www.blender.org
o Circle
v -0.866025 -0.000000 -0.500000
v -0.866025 0.000000 0.500000
v -0.866025 0.203284 0.500000
v 0.866025 0.000000 0.500000
v 0.866025 -0.000000 -0.500000
v 0.866025 0.203284 0.500000
v 0.000000 -0.000000 -1.000000
v -0.866025 0.203284 -0.500000
v 0.000000 0.000000 1.000000
v 0.000000 0.203284 1.000000
v 0.866025 0.203284 -0.500000
v 0.000000 0.203284 -1.000000
v -0.592644 0.292193 -0.342163
v 0.000000 0.292193 0.684327
v 0.592644 0.292193 -0.342163
v -0.592644 0.292193 0.342163
v 0.592644 0.292193 0.342163
v 0.000000 0.292193 -0.684327
v -0.455731 0.704730 -0.263116
v 0.000000 0.704730 0.526232
v 0.455730 0.704730 -0.263116
v -0.455731 0.704730 0.263116
v 0.455730 0.704730 0.263116
v 0.000000 0.704730 -0.526232
v -0.500795 0.845468 -0.289134
v 0.000000 0.845468 0.578269
v 0.500795 0.845468 -0.289134
v -0.500795 0.845468 0.289134
v 0.500795 0.845468 0.289134
v 0.385808 1.003206 0.222746
v 0.000000 0.845468 -0.578269
v -0.385808 1.003206 -0.222746
v 0.000000 1.003206 0.445493
v 0.385808 1.003206 -0.222747
v -0.385808 1.003206 0.222746
v 0.245015 2.090684 0.141460
v 0.000000 1.003206 -0.445493
v -0.245016 2.090684 -0.141460
v 0.000000 2.090684 0.282920
v 0.245015 2.090684 -0.141460
v -0.245016 2.090684 0.141460
v 0.370409 2.326007 0.213856
v 0.000000 2.090684 -0.282920
v -0.370409 2.326007 -0.213856
v 0.000000 2.326007 0.427711
v 0.370409 2.326007 -0.213856
v -0.370409 2.326007 0.213856
v 0.370409 2.475571 0.213856
v 0.000000 2.326007 -0.427711
v -0.370409 2.475571 -0.213856
v 0.000000 2.475571 0.427711
v 0.370409 2.475571 -0.213856
v -0.370409 2.475571 0.213856
v -0.236162 2.729512 0.136348
v 0.236162 2.729512 0.136348
v 0.000000 2.475571 -0.427711
v -0.236162 2.729512 -0.136348
v 0.000000 2.729512 0.272697
v 0.236162 2.729512 -0.136348
v -0.236162 4.879075 0.136348
v 0.236162 4.879075 0.136348
v 0.000000 2.729512 -0.272697
v -0.236162 4.879075 -0.136348
v 0.000000 4.879075 0.272697
v 0.236162 4.879075 -0.136348
v -0.325104 5.243567 0.187699
v 0.325104 5.243567 0.187699
v 0.000000 4.879075 -0.272697
v -0.325104 5.243567 -0.187699
v 0.000000 5.243567 0.375398
v 0.325104 5.243567 -0.187699
v 0.000000 5.243567 -0.375398
v 0.230625 5.672225 -0.133151
v -0.230625 5.672225 0.133151
v 0.230625 5.672225 0.133151
v -0.230625 5.672225 -0.133151
v 0.000000 5.672225 0.266302
v 0.000000 5.672225 -0.266303
v 0.230625 9.141777 -0.133151
v -0.230625 9.141777 0.133151
v 0.230625 9.141777 0.133151
v -0.230625 9.141777 -0.133151
v 0.000000 9.141777 0.266302
v 0.000000 9.141777 -0.266303
v 0.589325 9.568781 -0.340247
v -0.589325 9.568781 0.340247
v 0.589325 9.568781 0.340247
v -0.589325 9.568781 -0.340247
v 0.000000 9.568781 0.680494
v 0.000000 10.843143 1.192906
v 0.000000 9.568781 -0.680495
v 1.033087 10.843143 -0.596453
v -1.033087 10.843143 0.596453
v 1.033087 10.843143 0.596453
v -1.033087 10.843143 -0.596453
v 0.000000 12.189035 0.741927
v 0.000000 10.843143 -1.192906
v 0.642528 12.189035 -0.370965
v -0.642529 12.189035 0.370963
v 0.642529 12.189035 0.370963
v -0.642529 12.189035 -0.370965
v 0.000000 12.280624 0.974853
v 0.000000 12.189035 -0.741929
v 0.844248 12.280624 -0.487428
v -0.844248 12.280624 0.487426
v 0.844248 12.280624 0.487426
v -0.844248 12.280624 -0.487428
v 0.000000 12.774069 0.819318
v 0.000000 12.280624 -0.974855
v 0.709551 12.774069 -0.409661
v -0.709551 12.774069 0.409658
v 0.709551 12.774069 0.409659
v -0.709551 12.774069 -0.409660
v 0.000000 12.774069 -0.819320
v -0.326857 13.182564 -0.188712
v 0.000000 13.182564 0.377421
v 0.326857 13.182564 -0.188712
v -0.326857 13.182564 0.188710
v 0.326857 13.182564 0.188710
v 0.000000 13.182564 -0.377423
v 0.000000 13.820358 -0.000001
vt 0.5238 0.8513
vt 0.5236 0.9407
vt 0.5055 0.9407
vt 0.5479 0.9408
vt 0.5481 0.8513
vt 0.5661 0.9408
vt 0.4864 0.8512
vt 0.4862 0.9407
vt 0.4680 0.9406
vt 0.4867 0.9407
vt 0.4869 0.8512
vt 0.5051 0.8512
vt 0.2851 0.9000
vt 0.2852 0.8105
vt 0.3033 0.9000
vt 0.5476 0.8513
vt 0.5474 0.9408
vt 0.5294 0.8513
vt 0.4676 0.8512
vt 0.4675 0.9406
vt 0.4418 0.9265
vt 0.3038 0.9000
vt 0.3039 0.8105
vt 0.3296 0.8247
vt 0.4155 0.9406
vt 0.4157 0.8511
vt 0.4413 0.9265
vt 0.6319 0.8514
vt 0.6318 0.9409
vt 0.6062 0.8655
vt 0.6624 0.8515
vt 0.6622 0.9410
vt 0.6365 0.9268
vt 0.2956 0.7984
vt 0.2958 0.7090
vt 0.3214 0.7844
vt 0.7635 0.8517
vt 0.7634 0.9129
vt 0.7246 0.9058
vt 0.3219 0.7702
vt 0.3220 0.7090
vt 0.3609 0.7162
vt 0.6629 0.8515
vt 0.7241 0.8516
vt 0.6699 0.8904
vt 0.3691 0.8106
vt 0.3690 0.8719
vt 0.3302 0.8176
vt 0.4084 0.8511
vt 0.4083 0.9123
vt 0.3694 0.9052
vt 0.5667 0.9126
vt 0.5668 0.8513
vt 0.6056 0.9056
vt 0.6885 0.9321
vt 0.6884 0.9792
vt 0.6752 0.9815
vt 0.2395 0.7971
vt 0.2396 0.7500
vt 0.2528 0.7477
vt 0.7027 0.9792
vt 0.7027 0.9321
vt 0.7159 0.9815
vt 0.5812 0.9154
vt 0.5811 0.9625
vt 0.5680 0.9131
vt 0.2487 0.8128
vt 0.2486 0.8598
vt 0.2354 0.8621
vt 0.6889 0.9792
vt 0.6890 0.9321
vt 0.7021 0.9815
vt 0.2492 0.8622
vt 0.2492 0.8104
vt 0.2666 0.8563
vt 0.2609 0.9004
vt 0.2608 0.9522
vt 0.2434 0.9462
vt 0.2613 0.9522
vt 0.2614 0.9004
vt 0.2789 0.9064
vt 0.2533 0.7994
vt 0.2533 0.7477
vt 0.2707 0.7935
vt 0.2847 0.8105
vt 0.2846 0.8622
vt 0.2672 0.8164
vt 0.7391 0.9134
vt 0.7390 0.9651
vt 0.7215 0.9591
vt 0.6650 0.8111
vt 0.6649 0.8510
vt 0.5669 0.8182
vt 0.5663 0.8110
vt 0.5663 0.8508
vt 0.4682 0.8434
vt 0.4677 0.8108
vt 0.4676 0.8507
vt 0.3695 0.8432
vt 0.7636 0.8113
vt 0.7635 0.8511
vt 0.6655 0.8184
vt 0.4595 0.7704
vt 0.4594 0.8103
vt 0.3613 0.7775
vt 0.4596 0.7092
vt 0.4595 0.7491
vt 0.3614 0.7417
vt 0.7395 0.9452
vt 0.7396 0.9199
vt 0.7634 0.9517
vt 0.6056 0.9196
vt 0.6055 0.9449
vt 0.5817 0.9514
vt 0.2794 0.9323
vt 0.2794 0.9070
vt 0.3033 0.9005
vt 0.4018 0.9367
vt 0.3765 0.9366
vt 0.4083 0.9128
vt 0.2952 0.7667
vt 0.2951 0.7920
vt 0.2713 0.7601
vt 0.2952 0.7155
vt 0.2952 0.7408
vt 0.2713 0.7472
vt 0.3700 0.9754
vt 0.3700 0.9372
vt 0.3833 0.9754
vt 0.3689 0.9374
vt 0.3688 0.9757
vt 0.3554 0.9756
vt 0.4595 0.7630
vt 0.4212 0.7629
vt 0.4212 0.7496
vt 0.3305 0.9756
vt 0.3306 0.9373
vt 0.3439 0.9756
vt 0.3824 0.7495
vt 0.4207 0.7496
vt 0.3824 0.7629
vt 0.4083 0.9372
vt 0.4082 0.9755
vt 0.3948 0.9755
vt 0.3295 0.9006
vt 0.3294 0.9388
vt 0.3038 0.9319
vt 0.6890 0.9292
vt 0.6891 0.8910
vt 0.7147 0.9223
vt 0.3690 0.8724
vt 0.3689 0.9107
vt 0.3432 0.9037
vt 0.6628 0.9292
vt 0.6628 0.8909
vt 0.6885 0.8979
vt 0.3306 0.9111
vt 0.3689 0.9112
vt 0.3375 0.9368
vt 0.3608 0.7708
vt 0.3608 0.8091
vt 0.3351 0.7777
vt 0.1749 0.1758
vt 0.1752 0.1758
vt 0.1747 0.1752
vt 0.1753 0.1753
vt 0.1750 0.1753
vt 0.1750 0.1760
vt 0.1748 0.1755
vt 0.1752 0.1751
vt 0.1754 0.1756
vt 0.1746 0.1757
vt 0.1754 0.1759
vt 0.1738 0.1745
vt 0.1748 0.1772
vt 0.1755 0.1754
vt 0.1753 0.1739
vt 0.1735 0.1761
vt 0.1764 0.1766
vt 0.1766 0.1750
vt 0.1495 0.1599
vt 0.2006 0.1912
vt 0.1759 0.1456
vt 0.1743 0.2055
vt 0.2014 0.1613
vt 0.1487 0.1898
vt 0.2142 0.1780
vt 0.1360 0.1731
vt 0.1925 0.2106
vt 0.1576 0.1405
vt 0.1534 0.2082
vt 0.1967 0.1429
vt 0.3127 0.1756
vt 0.0375 0.1755
vt 0.2439 0.2947
vt 0.1063 0.0564
vt 0.1063 0.2947
vt 0.3546 0.0758
vt 0.6905 0.0758
vt 0.0250 0.7224
vt 0.3496 0.0714
vt 0.6855 0.0714
vt 0.0200 0.7180
vt 0.3602 0.0736
vt 0.6961 0.0736
vt 0.9436 0.7319
vt 0.3602 0.0758
vt 0.6961 0.0758
vt 0.0306 0.7224
vt 0.3602 0.0736
vt 0.6961 0.0736
vt 0.9436 0.7319
vt 0.3596 0.0652
vt 0.6955 0.0652
vt 0.9431 0.7235
vt 0.9450 0.7280
vt 0.0302 0.7163
vt 0.3493 0.0684
vt 0.9403 0.7280
vt 0.0255 0.7163
vt 0.6876 0.0684
vt 0.9450 0.7301
vt 0.0302 0.7184
vt 0.6923 0.0705
vt 0.9398 0.7301
vt 0.0250 0.7184
vt 0.3441 0.0705
vt 0.9497 0.7280
vt 0.0349 0.7163
vt 0.6971 0.0684
vt 0.9403 0.7301
vt 0.0255 0.7184
vt 0.3446 0.0705
vt 0.2872 0.7752
vt 0.2872 0.8937
vt 0.2554 0.8752
vt 0.1846 0.9530
vt 0.0819 0.8937
vt 0.0819 0.7752
vt 0.1139 0.8754
vt 0.1846 0.7159
vt 0.2553 0.7935
vt 0.1847 0.9162
vt 0.1845 0.7527
vt 0.2191 0.8575
vt 0.1138 0.7937
vt 0.1473 0.8529
vt 0.2218 0.8160
vt 0.1819 0.8759
vt 0.1873 0.7930
vt 0.1500 0.8114
vt 0.1865 0.8194
vt 0.1966 0.8437
vt 0.1706 0.8403
vt 0.1986 0.8286
vt 0.1826 0.8495
vt 0.1725 0.8252
vt 0.1846 0.8345
vt 0.5056 0.8512
vt 0.5663 0.8513
vt 0.4682 0.8512
vt 0.5049 0.9407
vt 0.3034 0.8105
vt 0.5292 0.9407
vt 0.4419 0.8653
vt 0.3295 0.8859
vt 0.4414 0.8653
vt 0.6061 0.9268
vt 0.6366 0.8656
vt 0.3215 0.7231
vt 0.7246 0.8587
vt 0.3608 0.7632
vt 0.7170 0.8905
vt 0.3301 0.8647
vt 0.3695 0.8581
vt 0.6057 0.8585
vt 0.6753 0.9297
vt 0.2527 0.7994
vt 0.7160 0.9298
vt 0.5679 0.9648
vt 0.2355 0.8104
vt 0.7022 0.9298
vt 0.2667 0.8164
vt 0.2434 0.9064
vt 0.2788 0.9463
vt 0.2708 0.7537
vt 0.2672 0.8563
vt 0.7216 0.9193
vt 0.5668 0.8435
vt 0.4682 0.8181
vt 0.3696 0.8179
vt 0.6654 0.8437
vt 0.3613 0.8028
vt 0.3614 0.7164
vt 0.7634 0.9134
vt 0.5817 0.9131
vt 0.3032 0.9388
vt 0.3701 0.9128
vt 0.2713 0.7984
vt 0.2714 0.7089
vt 0.3834 0.9372
vt 0.3555 0.9374
vt 0.4595 0.7496
vt 0.3440 0.9374
vt 0.4207 0.7629
vt 0.3949 0.9372
vt 0.3038 0.9075
vt 0.7148 0.8979
vt 0.3433 0.8793
vt 0.6885 0.9223
vt 0.3619 0.9369
vt 0.3351 0.8021
vt 0.2439 0.0564
vt 0.9380 0.7341
vt 0.9330 0.7297
vt 0.0306 0.7202
vt 0.9436 0.7341
vt 0.0306 0.7202
vt 0.0300 0.7117
vt 0.6923 0.0684
vt 0.3446 0.0684
vt 0.3493 0.0705
vt 0.6871 0.0705
vt 0.3540 0.0684
vt 0.6876 0.0705
vn -1.0000 0.0000 0.0000
vn 1.0000 0.0000 0.0000
vn -0.5000 0.0000 -0.8660
vn -0.5000 0.0000 0.8660
vn 0.5000 0.0000 0.8660
vn 0.5000 0.0000 -0.8660
vn -0.1546 0.9510 -0.2678
vn -0.1546 0.9510 0.2678
vn 0.1546 0.9510 0.2678
vn 0.1546 0.9510 -0.2678
vn -0.3093 0.9510 -0.0000
vn 0.3093 0.9510 0.0000
vn -0.4745 0.3150 -0.8219
vn -0.4745 0.3150 0.8219
vn 0.4745 0.3150 0.8219
vn 0.4745 0.3150 -0.8219
vn -0.9491 0.3150 0.0000
vn 0.9491 0.3150 0.0000
vn -0.4762 -0.3050 -0.8248
vn -0.4762 -0.3049 -0.8248
vn -0.4762 -0.3049 0.8248
vn -0.4762 -0.3050 0.8248
vn 0.4762 -0.3050 0.8248
vn 0.4762 -0.3050 -0.8248
vn -0.9524 -0.3049 0.0000
vn 0.9524 -0.3050 0.0000
vn 0.8081 0.5891 0.0000
vn -0.4040 0.5891 -0.6998
vn -0.4040 0.5891 0.6998
vn 0.4040 0.5891 0.6998
vn 0.4040 0.5891 -0.6998
vn -0.8081 0.5891 0.0000
vn 0.9917 0.1284 0.0000
vn -0.4959 0.1284 -0.8589
vn -0.4959 0.1284 0.8589
vn 0.4959 0.1284 0.8589
vn 0.4959 0.1284 -0.8589
vn -0.9917 0.1284 0.0000
vn 0.8825 -0.4703 0.0000
vn -0.4413 -0.4703 -0.7643
vn -0.4413 -0.4703 0.7643
vn 0.4413 -0.4703 0.7643
vn 0.4413 -0.4703 -0.7643
vn -0.8825 -0.4703 0.0000
vn -0.8841 0.4674 0.0000
vn 0.8841 0.4674 0.0000
vn -0.4420 0.4674 -0.7656
vn -0.4420 0.4674 0.7656
vn 0.4420 0.4674 0.7656
vn 0.4420 0.4674 -0.7656
vn -0.8660 -0.0000 -0.5000
vn -0.8660 0.0000 0.5000
vn -0.8571 -0.1432 0.4948
vn 0.8660 0.0000 0.5000
vn 0.8660 -0.0000 -0.5000
vn 0.8571 -0.1432 0.4948
vn 0.0000 -0.0000 -1.0000
vn -0.8571 -0.1432 -0.4948
vn 0.0000 0.0000 1.0000
vn 0.0000 -0.1432 0.9897
vn 0.8571 -0.1432 -0.4948
vn -0.8660 -0.0118 0.5000
vn 0.8660 -0.0118 0.5000
vn -0.0000 -0.1432 -0.9897
vn -0.8660 -0.0118 -0.5000
vn -0.0000 -0.0118 0.9999
vn 0.8660 -0.0118 -0.5000
vn -0.0000 -0.0118 -0.9999
vn 0.8587 0.1295 -0.4958
vn -0.8587 0.1295 0.4958
vn 0.8587 0.1295 0.4958
vn -0.8587 0.1295 -0.4958
vn -0.0000 0.1295 0.9916
vn -0.0000 0.1295 -0.9916
vn 0.7839 -0.4252 -0.4526
vn -0.7839 -0.4252 0.4526
vn 0.7839 -0.4252 0.4526
vn -0.7839 -0.4252 -0.4526
vn 0.0000 -0.4252 0.9051
vn -0.0000 -0.4252 -0.9051
vn 0.6216 -0.6963 -0.3589
vn -0.6216 -0.6963 0.3589
vn 0.6216 -0.6963 0.3589
vn -0.6216 -0.6963 -0.3589
vn 0.0000 -0.6963 0.7178
vn 0.4722 -0.3289 0.8179
vn 0.4722 -0.3289 -0.8179
vn -0.9444 -0.3289 0.0000
vn 0.9444 -0.3289 0.0000
vn -0.4722 -0.3289 -0.8179
vn -0.4722 -0.3289 0.8179
vn -0.4802 0.2787 0.8317
vn 0.4802 0.2787 0.8317
vn 0.4802 0.2787 -0.8317
vn -0.9604 0.2787 0.0000
vn 0.9604 0.2787 0.0000
vn -0.4802 0.2787 -0.8317
vn -0.3169 -0.9306 0.1830
vn 0.0000 -0.9306 0.3659
vn 0.0000 -0.3640 0.9314
vn 0.3169 -0.9306 0.1830
vn 0.3169 -0.9306 -0.1830
vn 0.0000 -0.9306 -0.3659
vn 0.8066 -0.3640 -0.4657
vn -0.3169 -0.9306 -0.1830
vn -0.8066 -0.3640 0.4657
vn 0.8066 -0.3640 0.4657
vn -0.8066 -0.3640 -0.4657
vn -0.0000 0.5011 0.8654
vn -0.0000 -0.3640 -0.9314
vn 0.7494 0.5011 -0.4327
vn -0.7494 0.5011 0.4327
vn 0.7494 0.5011 0.4327
vn -0.7494 0.5011 -0.4327
vn -0.0000 0.5011 -0.8654
vn -0.6564 0.6523 -0.3790
vn -0.0000 0.6523 0.7580
vn 0.6564 0.6523 -0.3790
vn -0.6564 0.6523 0.3790
vn 0.6564 0.6523 0.3790
vn 0.0000 0.6523 -0.7580
vn 0.0000 1.0000 -0.0000
vn 0.0000 -0.6963 -0.7178
s 1
f 1/1/1 2/2/1 3/3/1
f 4/4/2 5/5/2 6/6/2
f 7/7/3 1/8/3 8/9/3
f 2/10/4 9/11/4 10/12/4
f 9/13/5 4/14/5 10/15/5
f 5/16/6 7/17/6 11/18/6
f 12/19/7 8/20/7 13/21/7
f 3/22/8 10/23/8 14/24/8
f 10/25/9 6/26/9 14/27/9
f 11/28/10 12/29/10 15/30/10
f 8/31/11 3/32/11 16/33/11
f 6/34/12 11/35/12 17/36/12
f 18/37/13 13/38/13 19/39/13
f 16/40/14 14/41/14 20/42/14
f 14/43/15 17/44/15 20/45/15
f 15/46/16 18/47/16 21/48/16
f 13/49/17 16/50/17 22/51/17
f 17/52/18 15/53/18 23/54/18
f 24/55/19 19/56/20 25/57/20
f 22/58/21 20/59/22 26/60/22
f 20/61/23 23/62/23 26/63/23
f 21/64/24 24/65/24 27/66/24
f 19/67/25 22/68/25 28/69/25
f 23/70/26 21/71/26 29/72/26
f 29/73/27 27/74/27 30/75/27
f 31/76/28 25/77/28 32/78/28
f 28/79/29 26/80/29 33/81/29
f 26/82/30 29/83/30 33/84/30
f 27/85/31 31/86/31 34/87/31
f 25/88/32 28/89/32 35/90/32
f 30/91/33 34/92/33 36/93/33
f 37/94/34 32/95/34 38/96/34
f 35/97/35 33/98/35 39/99/35
f 33/100/36 30/101/36 39/102/36
f 34/103/37 37/104/37 40/105/37
f 32/106/38 35/107/38 41/108/38
f 36/109/39 40/110/39 42/111/39
f 43/112/40 38/113/40 44/114/40
f 41/115/41 39/116/41 45/117/41
f 39/118/42 36/119/42 45/120/42
f 40/121/43 43/122/43 46/123/43
f 38/124/44 41/125/44 47/126/44
f 42/127/2 46/128/2 48/129/2
f 49/130/3 44/131/3 50/132/3
f 47/133/4 45/134/4 51/135/4
f 45/136/5 42/137/5 51/138/5
f 46/139/6 49/140/6 52/141/6
f 44/142/1 47/143/1 53/144/1
f 50/145/45 53/146/45 54/147/45
f 48/148/46 52/149/46 55/150/46
f 56/151/47 50/152/47 57/153/47
f 53/154/48 51/155/48 58/156/48
f 51/157/49 48/158/49 58/159/49
f 52/160/50 56/161/50 59/162/50
f 57/163/51 54/164/52 60/165/53
f 55/166/54 59/167/55 61/168/56
f 62/169/57 57/163/51 63/170/58
f 54/164/52 58/171/59 64/172/60
f 58/171/59 55/166/54 64/172/60
f 59/167/55 62/169/57 65/173/61
f 63/170/58 60/165/53 66/174/62
f 61/168/56 65/173/61 67/175/63
f 68/176/64 63/170/58 69/177/65
f 60/165/53 64/172/60 70/178/66
f 64/172/60 61/168/56 70/178/66
f 65/173/61 68/176/64 71/179/67
f 71/179/67 72/180/68 73/181/69
f 69/177/65 66/174/62 74/182/70
f 67/175/63 71/179/67 75/183/71
f 72/180/68 69/177/65 76/184/72
f 66/174/62 70/178/66 77/185/73
f 70/178/66 67/175/63 77/185/73
f 73/181/69 78/186/74 79/187/75
f 76/184/72 74/182/70 80/188/76
f 75/183/71 73/181/69 81/189/77
f 78/186/74 76/184/72 82/190/78
f 74/182/70 77/185/73 83/191/79
f 77/185/73 75/183/71 83/191/79
f 79/187/75 84/192/80 85/193/81
f 82/190/78 80/188/76 86/194/82
f 81/189/77 79/187/75 87/195/83
f 84/192/80 82/190/78 88/196/84
f 80/188/76 83/191/79 89/197/85
f 83/191/79 81/189/77 89/197/85
f 89/198/86 87/199/86 90/200/86
f 85/201/87 91/202/87 92/203/87
f 88/204/88 86/205/88 93/206/88
f 87/207/89 85/208/89 94/209/89
f 91/210/90 88/211/90 95/212/90
f 86/213/91 89/214/91 90/215/91
f 93/216/92 90/217/92 96/218/92
f 90/219/93 94/220/93 96/221/93
f 92/222/94 97/223/94 98/224/94
f 95/225/95 93/226/95 99/227/95
f 94/228/96 92/229/96 100/230/96
f 97/231/97 95/232/97 101/233/97
f 99/234/98 96/235/99 102/236/100
f 96/235/99 100/237/101 102/236/100
f 98/238/102 103/239/103 104/240/104
f 101/241/105 99/234/98 105/242/106
f 100/237/101 98/238/102 106/243/107
f 103/239/103 101/241/105 107/244/108
f 105/242/106 102/236/100 108/245/109
f 102/236/100 106/243/107 108/245/109
f 104/240/104 109/246/110 110/247/111
f 107/244/108 105/242/106 111/248/112
f 106/243/107 104/240/104 112/249/113
f 109/246/110 107/244/108 113/250/114
f 114/251/115 113/250/114 115/252/116
f 111/248/112 108/245/109 116/253/117
f 108/245/109 112/249/113 116/253/117
f 110/247/111 114/251/115 117/254/118
f 113/250/114 111/248/112 118/255/119
f 112/249/113 110/247/111 119/256/120
f 120/257/121 115/252/116 121/258/122
f 118/255/119 116/253/117 121/258/122
f 116/253/117 119/256/120 121/258/122
f 117/254/118 120/257/121 121/258/122
f 115/252/116 118/255/119 121/258/122
f 119/256/120 117/254/118 121/258/122
f 8/259/1 1/1/1 3/3/1
f 5/5/2 11/260/2 6/6/2
f 12/261/3 7/7/3 8/9/3
f 3/262/4 2/10/4 10/12/4
f 4/14/5 6/263/5 10/15/5
f 7/17/6 12/264/6 11/18/6
f 18/265/7 12/19/7 13/21/7
f 16/266/8 3/22/8 14/24/8
f 6/26/9 17/267/9 14/27/9
f 12/29/10 18/268/10 15/30/10
f 13/269/11 8/31/11 16/33/11
f 11/35/12 15/270/12 17/36/12
f 24/271/13 18/37/13 19/39/13
f 22/272/14 16/40/14 20/42/14
f 17/44/15 23/273/15 20/45/15
f 18/47/16 24/274/16 21/48/16
f 19/275/17 13/49/17 22/51/17
f 15/53/18 21/276/18 23/54/18
f 31/277/19 24/55/19 25/57/20
f 28/278/21 22/58/21 26/60/22
f 23/62/23 29/279/23 26/63/23
f 24/65/24 31/280/24 27/66/24
f 25/281/25 19/67/25 28/69/25
f 21/71/26 27/282/26 29/72/26
f 27/74/27 34/283/27 30/75/27
f 37/284/28 31/76/28 32/78/28
f 35/285/29 28/79/29 33/81/29
f 29/83/30 30/286/30 33/84/30
f 31/86/31 37/287/31 34/87/31
f 32/288/32 25/88/32 35/90/32
f 34/92/33 40/289/33 36/93/33
f 43/290/34 37/94/34 38/96/34
f 41/291/35 35/97/35 39/99/35
f 30/101/36 36/292/36 39/102/36
f 37/104/37 43/293/37 40/105/37
f 38/294/38 32/106/38 41/108/38
f 40/110/39 46/295/39 42/111/39
f 49/296/40 43/112/40 44/114/40
f 47/297/41 41/115/41 45/117/41
f 36/119/42 42/298/42 45/120/42
f 43/122/43 49/299/43 46/123/43
f 44/300/44 38/124/44 47/126/44
f 46/128/2 52/301/2 48/129/2
f 56/302/3 49/130/3 50/132/3
f 53/303/4 47/133/4 51/135/4
f 42/137/5 48/304/5 51/138/5
f 49/140/6 56/305/6 52/141/6
f 50/306/1 44/142/1 53/144/1
f 57/307/45 50/145/45 54/147/45
f 52/149/46 59/308/46 55/150/46
f 62/309/47 56/151/47 57/153/47
f 54/310/48 53/154/48 58/156/48
f 48/158/49 55/311/49 58/159/49
f 56/161/50 62/312/50 59/162/50
f 63/170/58 57/163/51 60/165/53
f 59/167/55 65/173/61 61/168/56
f 68/176/64 62/169/57 63/170/58
f 60/165/53 54/164/52 64/172/60
f 55/166/54 61/168/56 64/172/60
f 62/169/57 68/176/64 65/173/61
f 69/177/65 63/170/58 66/174/62
f 65/173/61 71/179/67 67/175/63
f 72/180/68 68/176/64 69/177/65
f 66/174/62 60/165/53 70/178/66
f 61/168/56 67/175/63 70/178/66
f 68/176/64 72/180/68 71/179/67
f 72/180/68 78/186/74 73/181/69
f 76/184/72 69/177/65 74/182/70
f 71/179/67 73/181/69 75/183/71
f 78/186/74 72/180/68 76/184/72
f 74/182/70 66/174/62 77/185/73
f 67/175/63 75/183/71 77/185/73
f 78/186/74 84/192/80 79/187/75
f 82/190/78 76/184/72 80/188/76
f 73/181/69 79/187/75 81/189/77
f 84/192/80 78/186/74 82/190/78
f 80/188/76 74/182/70 83/191/79
f 75/183/71 81/189/77 83/191/79
f 84/192/80 91/313/123 85/193/81
f 88/196/84 82/190/78 86/194/82
f 79/187/75 85/193/81 87/195/83
f 91/313/123 84/192/80 88/196/84
f 86/194/82 80/188/76 89/197/85
f 81/189/77 87/195/83 89/197/85
f 87/199/86 94/314/86 90/200/86
f 91/202/87 97/315/87 92/203/87
f 95/316/88 88/204/88 93/206/88
f 85/208/89 92/317/89 94/209/89
f 97/318/90 91/210/90 95/212/90
f 93/319/91 86/213/91 90/215/91
f 99/320/92 93/216/92 96/218/92
f 94/220/93 100/321/93 96/221/93
f 97/223/94 103/322/94 98/224/94
f 101/323/95 95/225/95 99/227/95
f 92/229/96 98/324/96 100/230/96
f 103/325/97 97/231/97 101/233/97
f 105/242/106 99/234/98 102/236/100
f 100/237/101 106/243/107 102/236/100
f 103/239/103 109/246/110 104/240/104
f 107/244/108 101/241/105 105/242/106
f 98/238/102 104/240/104 106/243/107
f 109/246/110 103/239/103 107/244/108
f 111/248/112 105/242/106 108/245/109
f 106/243/107 112/249/113 108/245/109
f 109/246/110 114/251/115 110/247/111
f 113/250/114 107/244/108 111/248/112
f 104/240/104 110/247/111 112/249/113
f 114/251/115 109/246/110 113/250/114
f 120/257/121 114/251/115 115/252/116
f 118/255/119 111/248/112 116/253/117
f 112/249/113 119/256/120 116/253/117
f 114/251/115 120/257/121 117/254/118
f 115/252/116 113/250/114 118/255/119
f 110/247/111 117/254/118 119/256/120
