# Blender v2.83.0 OBJ File: ''
# www.blender.org
o Cylinder
v -0.000000 -0.085935 2.988551
v -0.000000 0.585935 2.522792
v -2.588161 -0.085935 1.494276
v -2.184802 0.585935 1.261396
v -2.588161 -0.085935 -1.494276
v -2.184802 0.585935 -1.261396
v 0.000000 -0.085935 -2.988551
v 0.000000 0.585935 -2.522792
v 2.588161 -0.085935 -1.494275
v 2.184802 0.585935 -1.261396
v 2.588161 -0.085935 1.494275
v 2.184802 0.585935 1.261396
v -0.978891 1.646448 0.565163
v 0.000000 1.646448 1.130326
v -0.978891 1.646448 -0.565163
v 0.000000 1.646448 -1.130326
v 0.978891 1.646448 -0.565163
v 0.978891 1.646448 0.565163
v -0.978891 15.209751 0.565163
v 0.000000 15.209751 1.130326
v -0.978891 15.209751 -0.565163
v 0.000000 15.209751 -1.130326
v 0.978891 15.209751 -0.565163
v 0.978891 15.209751 0.565163
v -1.846838 16.509953 1.066272
v -0.000000 16.509953 2.132545
v -1.846838 16.509953 -1.066272
v -0.000000 16.509953 -2.132545
v 1.846838 16.509953 -1.066272
v 1.846838 16.509953 1.066272
v -1.846838 19.641005 1.066272
v 0.000000 19.641005 2.132545
v -1.846838 19.641005 -1.066272
v 0.000000 19.641005 -2.132545
v 1.846838 19.641005 -1.066272
v 1.846838 19.641005 1.066272
v -0.864247 20.829674 0.498974
v 0.000001 20.829674 0.997947
v -0.864247 20.829674 -0.498974
v 0.000001 20.829674 -0.997947
v 0.864248 20.829674 -0.498973
v 0.864248 20.829674 0.498973
v -1.753022 20.990143 1.012108
v 0.000001 20.990143 2.024216
v -1.753022 20.990143 -1.012108
v 0.000001 20.990143 -2.024216
v 1.753023 20.990143 -1.012108
v 1.753023 20.990143 1.012108
v 0.000001 22.049156 0.000000
vt 0.189131 0.866386
vt 0.218516 0.857603
vt 0.196627 0.871381
vt 0.216069 0.846742
vt 0.277746 0.871688
vt 0.288581 0.898436
vt 0.231409 0.909948
vt 0.201949 0.916658
vt 0.207027 0.909418
vt 0.212123 0.999774
vt 0.130091 0.994622
vt 0.196760 0.892167
vt 0.188357 0.894051
vt 0.730295 0.251076
vt 0.075907 0.199058
vt 0.730016 0.203339
vt 0.288581 0.424581
vt 0.274086 0.848182
vt 0.040041 0.923008
vt 0.082630 0.579670
vt 0.233760 0.922037
vt 0.000226 0.774113
vt 0.079056 0.258198
vt 0.001959 0.187218
vt 0.732639 0.346165
vt 0.090891 0.316673
vt 0.731191 0.298735
vt 0.730370 0.155633
vt 0.089533 0.087825
vt 0.731310 0.107990
vt 0.079476 0.141678
vt 0.107495 0.039944
vt 0.732639 0.055892
vt 0.932689 0.452231
vt 0.613261 0.921223
vt 0.613261 0.452231
vt 0.112232 0.368506
vt 0.012760 0.339213
vt 0.012478 0.120554
vt 0.033505 0.056945
vt 0.000226 0.258731
vt 0.072063 0.000226
vt 0.343170 0.636011
vt 0.408406 0.711986
vt 0.343170 0.754404
vt 0.611275 0.912206
vt 0.930702 0.443214
vt 0.930702 0.912206
vt 0.935739 0.441162
vt 0.616311 0.910153
vt 0.616311 0.441162
vt 0.621604 0.918001
vt 0.941032 0.449009
vt 0.941032 0.918001
vt 0.611531 0.910911
vt 0.930959 0.441920
vt 0.930959 0.910911
vt 0.616568 0.913895
vt 0.935995 0.444903
vt 0.935995 0.913895
vt 0.391329 0.849524
vt 0.472539 0.848398
vt 0.431013 0.872521
vt 0.445856 0.577150
vt 0.482900 0.677960
vt 0.449453 0.655435
vt 0.445449 0.812796
vt 0.478878 0.717740
vt 0.548135 0.753935
vt 0.441853 0.734512
vt 0.412428 0.672207
vt 0.548135 0.635542
vt 0.312353 0.531590
vt 0.312353 0.430721
vt 0.399707 0.481156
vt 0.351437 0.918170
vt 0.309892 0.848403
vt 0.351539 0.872323
vt 0.430890 0.918364
vt 0.391215 0.989229
vt 0.391108 0.941192
vt 0.391231 0.801486
vt 0.309899 0.942288
vt 0.472539 0.942291
vt 0.399707 0.380287
vt 0.487062 0.430721
vt 0.487062 0.531590
vt 0.399707 0.582024
vt 0.269906 0.987866
vt 0.932689 0.921223
vt 0.061418 0.424129
vt 0.611275 0.443214
vt 0.935739 0.910153
vt 0.621604 0.449009
vt 0.611531 0.441920
vt 0.616568 0.444903
vn -0.4287 0.5147 0.7425
vn -0.8574 0.5147 0.0000
vn -0.4287 0.5147 -0.7425
vn 0.4287 0.5147 -0.7425
vn 0.3302 0.7509 -0.5719
vn 0.8574 0.5147 0.0000
vn 0.4287 0.5147 0.7425
vn 0.0000 -1.0000 -0.0000
vn 1.0000 0.0000 0.0000
vn -0.6604 0.7509 0.0000
vn 0.6604 0.7509 0.0000
vn -0.3302 0.7509 0.5719
vn -0.3302 0.7509 -0.5719
vn 0.3302 0.7509 0.5719
vn 0.8317 -0.5552 0.0000
vn -0.5000 0.0000 -0.8660
vn -0.5000 0.0000 0.8660
vn 0.5000 -0.0000 0.8660
vn 0.5000 -0.0000 -0.8660
vn -1.0000 0.0000 0.0000
vn -0.4159 -0.5552 -0.7203
vn -0.4159 -0.5552 0.7203
vn 0.4159 -0.5552 0.7203
vn 0.4159 -0.5552 -0.7203
vn -0.8317 -0.5552 0.0000
vn 0.7708 0.6371 0.0000
vn 0.0888 -0.9841 0.1539
vn -0.3854 0.6371 -0.6675
vn -0.3854 0.6371 0.6675
vn 0.3854 0.6371 0.6675
vn 0.3854 0.6371 -0.6675
vn -0.7708 0.6371 0.0000
vn 0.2585 0.8559 0.4478
vn 0.0888 -0.9841 -0.1539
vn -0.1777 -0.9841 0.0000
vn 0.1777 -0.9841 0.0000
vn -0.0888 -0.9841 -0.1539
vn -0.0888 -0.9841 0.1539
vn 0.2585 0.8559 -0.4478
vn -0.5171 0.8559 0.0000
vn 0.5171 0.8559 0.0000
vn -0.2585 0.8559 -0.4478
vn -0.2585 0.8559 0.4478
s off
f 2/1/1 3/2/1 1/3/1
f 4/4/2 5/5/2 3/2/2
f 6/6/3 7/7/3 5/5/3
f 7/7/4 10/8/4 9/9/4
f 10/8/5 16/10/5 17/11/5
f 10/8/6 11/12/6 9/9/6
f 12/13/7 1/3/7 11/12/7
f 3/2/8 7/7/8 11/12/8
f 17/14/9 24/15/9 18/16/9
f 4/4/10 15/17/10 6/18/10
f 10/8/11 18/19/11 12/13/11
f 2/1/12 13/20/12 4/4/12
f 6/6/13 16/10/13 8/21/13
f 12/13/14 14/22/14 2/1/14
f 23/23/15 30/24/15 24/15/15
f 15/25/16 22/26/16 16/27/16
f 14/28/17 19/29/17 13/30/17
f 18/16/18 20/31/18 14/28/18
f 17/14/19 22/26/19 23/23/19
f 13/30/20 21/32/20 15/33/20
f 30/34/18 32/35/18 26/36/18
f 21/37/21 28/38/21 22/26/21
f 19/29/22 26/39/22 25/40/22
f 20/31/23 30/24/23 26/39/23
f 22/26/24 29/41/24 23/23/24
f 21/32/25 25/40/25 27/42/25
f 35/43/26 42/44/26 36/45/26
f 28/46/19 35/47/19 29/48/19
f 25/49/20 33/50/20 27/51/20
f 29/52/9 36/53/9 30/54/9
f 27/55/16 34/56/16 28/57/16
f 26/58/17 31/59/17 25/60/17
f 42/61/27 44/62/27 38/63/27
f 34/64/28 39/65/28 40/66/28
f 32/67/29 37/68/29 31/69/29
f 36/45/30 38/70/30 32/67/30
f 35/43/31 40/66/31 41/71/31
f 31/69/32 39/65/32 33/72/32
f 44/73/33 48/74/33 49/75/33
f 40/76/34 47/77/34 41/78/34
f 37/79/35 45/80/35 39/81/35
f 41/78/36 48/82/36 42/61/36
f 39/81/37 46/83/37 40/76/37
f 38/63/38 43/84/38 37/79/38
f 47/85/39 46/86/39 49/75/39
f 45/87/40 43/88/40 49/75/40
f 48/74/41 47/85/41 49/75/41
f 46/86/42 45/87/42 49/75/42
f 43/88/43 44/73/43 49/75/43
f 2/1/1 4/4/1 3/2/1
f 4/4/2 6/18/2 5/5/2
f 6/6/3 8/21/3 7/7/3
f 7/7/4 8/21/4 10/8/4
f 10/8/5 8/21/5 16/10/5
f 10/8/6 12/13/6 11/12/6
f 12/13/7 2/1/7 1/3/7
f 11/12/8 1/3/8 3/2/8
f 3/2/8 5/5/8 7/7/8
f 7/7/8 9/9/8 11/12/8
f 17/14/9 23/23/9 24/15/9
f 4/4/10 13/20/10 15/17/10
f 10/8/11 17/11/11 18/19/11
f 2/1/12 14/22/12 13/20/12
f 6/6/13 15/89/13 16/10/13
f 12/13/14 18/19/14 14/22/14
f 23/23/15 29/41/15 30/24/15
f 15/25/16 21/37/16 22/26/16
f 14/28/17 20/31/17 19/29/17
f 18/16/18 24/15/18 20/31/18
f 17/14/19 16/27/19 22/26/19
f 13/30/20 19/29/20 21/32/20
f 30/34/18 36/90/18 32/35/18
f 21/37/21 27/91/21 28/38/21
f 19/29/22 20/31/22 26/39/22
f 20/31/23 24/15/23 30/24/23
f 22/26/24 28/38/24 29/41/24
f 21/32/25 19/29/25 25/40/25
f 35/43/26 41/71/26 42/44/26
f 28/46/19 34/92/19 35/47/19
f 25/49/20 31/93/20 33/50/20
f 29/52/9 35/94/9 36/53/9
f 27/55/16 33/95/16 34/56/16
f 26/58/17 32/96/17 31/59/17
f 42/61/27 48/82/27 44/62/27
f 34/64/28 33/72/28 39/65/28
f 32/67/29 38/70/29 37/68/29
f 36/45/30 42/44/30 38/70/30
f 35/43/31 34/64/31 40/66/31
f 31/69/32 37/68/32 39/65/32
f 40/76/34 46/83/34 47/77/34
f 37/79/35 43/84/35 45/80/35
f 41/78/36 47/77/36 48/82/36
f 39/81/37 45/80/37 46/83/37
f 38/63/38 44/62/38 43/84/38
